<?xml version="1.0" standalone="no"?>
<!DOCTYPE svg PUBLIC "-//W3C//DTD SVG 20010904//EN"
 "http://www.w3.org/TR/2001/REC-SVG-20010904/DTD/svg10.dtd">
<svg version="1.0" xmlns="http://www.w3.org/2000/svg"
 width="1280.000000pt" height="640.000000pt" viewBox="0 0 1280.000000 640.000000"
 preserveAspectRatio="xMidYMid meet">
<g transform="translate(0.000000,640.000000) scale(0.100000,-0.100000)"
fill="#000000" stroke="none">
<path d="M11215 4429 c-167 -26 -339 -88 -472 -171 -191 -120 -344 -325 -394
-528 -22 -89 -17 -223 11 -309 41 -128 152 -272 248 -321 61 -32 162 -26 221
13 60 40 94 97 99 167 6 79 -16 113 -122 190 -127 91 -133 135 -40 259 56 75
101 113 179 151 202 100 469 64 663 -89 99 -79 212 -258 262 -416 27 -87 38
-256 21 -337 -40 -190 -203 -346 -421 -404 -87 -23 -275 -23 -394 1 -303 59
-580 178 -1353 583 -558 292 -711 369 -963 484 -699 321 -1273 487 -1859 539
-150 13 -466 7 -546 -11 -259 -58 -427 -116 -700 -242 -282 -130 -611 -319
-1235 -708 -796 -497 -1079 -641 -1368 -699 -219 -44 -356 -56 -642 -56 -291
0 -392 8 -615 51 -575 111 -1082 362 -1573 778 -167 141 -199 163 -214 148
-15 -15 58 -106 178 -223 456 -442 1098 -784 1724 -918 293 -63 633 -90 903
-72 298 21 431 45 636 116 240 84 597 260 1116 550 902 505 1234 669 1586 786
243 80 322 94 549 94 277 0 552 -44 884 -140 554 -161 1038 -385 2096 -970
629 -349 992 -524 1304 -631 538 -185 919 -173 1264 41 282 174 436 342 496
545 25 83 56 302 56 394 0 103 -25 335 -44 418 -62 261 -211 475 -453 647 -97
69 -348 196 -463 234 -139 47 -216 59 -395 62 -93 2 -197 -1 -230 -6z"/>
</g>
</svg>
